<svg xmlns="http://www.w3.org/2000/svg" xmlns:xlink="http://www.w3.org/1999/xlink" aria-hidden="true" role="img" class="iconify iconify--logos" width="35.93" height="32" preserveAspectRatio="xMidYMid meet" viewBox="0 0 256 228"><path fill="#00D8FF" d="M210.483 73.824a171.49 171.49 0 0 0-8.24-2.597c.465-1.9.893-3.777 1.273-5.621c6.238-30.281 2.16-54.676-11.769-62.708c-13.355-7.7-35.196.329-57.254 19.526a171.23 171.23 0 0 0-6.375 5.848a155.866 155.866 0 0 0-4.241-3.917C100.759 3.829 77.587-4.822 64.207 2.886C50.297 10.854 46.22 35.248 52.456 65.523a170.974 170.974 0 0 0 1.271 5.609a145.52 145.52 0 0 0-8.238 2.597C18.084 83.6 0 98.24 0 113.668c0 15.426 18.084 30.068 45.489 39.848a171.49 171.49 0 0 0 8.24-2.597a145.567 145.567 0 0 0-1.273 5.621c-6.236 30.281-2.16 54.676 11.769 62.708c13.355 7.697 35.196-.329 57.254-19.526a171.23 171.23 0 0 0 6.375 5.848a155.866 155.866 0 0 0 4.241-3.917c22.058 19.855 45.23 28.506 58.61 20.786c13.869-7.972 18.066-32.366 11.83-62.708a170.974 170.974 0 0 0-1.271-5.609c2.82.894 5.68 1.725 8.578 2.492c27.405-9.78 45.489-24.422 45.489-39.848c0-15.426-18.084-30.068-45.489-39.844zM128.002 155.912c-15.426 0-27.934-12.508-27.934-27.934s12.508-27.934 27.934-27.934s27.934 12.508 27.934 27.934s-12.508 27.934-27.934 27.934z"></path></svg>